<?xml version="1.0" encoding="utf-8"?>
<!-- Generator: Adobe Illustrator 24.2.1, SVG Export Plug-In . SVG Version: 6.00 Build 0)  -->
<svg version="1.1" id="Capa_1" xmlns="http://www.w3.org/2000/svg" xmlns:xlink="http://www.w3.org/1999/xlink" x="0px" y="0px"
	 viewBox="0 0 512 512" style="enable-background:new 0 0 512 512;" xml:space="preserve">
<style type="text/css">
	.st0{fill:#7F2EE8;}
</style>
<path class="st0" d="M256,48C141.1,48,48,141.1,48,256c0,98.2,68.1,180.5,159.6,202.3c-4.7-1.1-9.4-2.4-14-3.8v-47.7
	c0,0-7.8,2.6-18.2,2.6c-29.1,0-41.2-26-44.2-39c-1.8-7.9-6.6-15.5-11.8-20.1c-6.1-5.5-9-5.5-9-7.4c-0.1-3.9,5.3-3.8,7.8-3.8
	c13,0,22.9,13.8,27.4,21c11.3,17.7,23.5,20.6,29.8,20.6c7.8,0,14.5-1.2,19.2-3.4c2.1-15.1,8.9-28.6,19.8-38.2
	c-48.8-9.8-83.2-37.7-83.2-83.2c0-23.4,9.4-45,25.1-62.3c-1.6-4.5-4.3-13.7-4.3-28.7c0-9.9,0.7-22,5.2-33.8c0,0,29.7,0.2,57.6,26.7
	c12.9-3.8,26.7-5.9,41.2-5.9s28.2,2.1,41.2,5.9c28-26.5,57.6-26.7,57.6-26.7c4.5,11.8,5.2,23.9,5.2,33.8c0,16.1-2.1,25.5-3.5,29.6
	c15.2,17.2,24.3,38.4,24.3,61.4c0,45.5-34.4,73.4-83.2,83.2c13,11.4,20.8,28.1,20.8,46.8v68.5c-4.6,1.4-9.3,2.7-14,3.8
	C395.9,436.5,464,354.2,464,256C464,141.1,370.9,48,256,48z M270.5,463.4c-4.8,0.3-9.6,0.6-14.5,0.6
	C260.9,464,265.7,463.8,270.5,463.4z M302.3,458.8c-9.3,2.1-18.9,3.6-28.6,4.4C283.4,462.4,293,460.9,302.3,458.8z M256,464
	c-4.9,0-9.7-0.2-14.5-0.6C246.3,463.8,251.1,464,256,464z M238.3,463.2c-9.7-0.8-19.3-2.3-28.6-4.4
	C219,460.9,228.6,462.4,238.3,463.2z"/>
</svg>
